# xmcd
#
# Track frame offsets:
#	150
#	21815
#	43650
#	69550
#	94710
#	120732
#	139725
#	162525
#	181320
#
# Disc length: 2671 seconds
#
# Revision: 2
# Processed by: cddbd v1.5.2PL0 Copyright (c) Steve Scherf et al.
# Submitted via: audiograbber 1.83.01
#
DISCID=790a6d09
DTITLE=Luther Allison - Rich Man
DYEAR=1987
DGENRE=Blues
TTITLE0=Chicago
TTITLE1=Rich Man
TTITLE2=Love Is Free
TTITLE3=Cold As Ice
TTITLE4=Freedom
TTITLE5=Fight
TTITLE6=Mistake
TTITLE7=Get Down
TTITLE8=Cry
EXTD=ID3G: 0
EXTT0=
EXTT1=
EXTT2=
EXTT3=
EXTT4=
EXTT5=
EXTT6=
EXTT7=
EXTT8=
PLAYORDER=
